<?xml version="1.0" standalone="no"?><!DOCTYPE svg PUBLIC "-//W3C//DTD SVG 1.1//EN" "http://www.w3.org/Graphics/SVG/1.1/DTD/svg11.dtd"><svg class="icon" width="200px" height="200.00px" viewBox="0 0 1024 1024" version="1.1" xmlns="http://www.w3.org/2000/svg"><path fill="#333333" d="M839.01 62c37.11 0 67.2 30.09 67.2 67.2v649.6c0 37.11-30.09 67.2-67.2 67.2h-100.8V230h-504V129.2c0-37.11 30.09-67.2 67.2-67.2h537.6z m0 56h-537.6c-5.15 0-9.5 3.48-10.8 8.22l-0.4 2.98V174h504v616h44.8c5.15 0 9.5-3.48 10.8-8.22l0.4-2.98V129.2c0-5.15-3.48-9.5-8.22-10.8l-2.98-0.4zM727.01 174c37.11 0 67.2 30.09 67.2 67.2v649.6c0 37.11-30.09 67.2-67.2 67.2h-537.6c-37.11 0-67.2-30.09-67.2-67.2V241.2c0-37.11 30.09-67.2 67.2-67.2h537.6z m0 56h-537.6c-5.15 0-9.5 3.48-10.8 8.22l-0.4 2.98v649.6c0 5.15 3.48 9.5 8.22 10.8l2.98 0.4h537.6c5.15 0 9.5-3.48 10.8-8.22l0.4-2.98V241.2c0-5.15-3.48-9.5-8.22-10.8l-2.98-0.4zM490.69 790v-85.12h94.64v-34.72h-94.64V622l0.56-0.56h94.08v-34.72h-74.48l109.2-196.56h-73.92l-87.92 171.92-87.92-171.92h-73.92l109.2 196.56h-73.92v34.72h93.52l0.56 0.56v48.16h-94.08v34.72h94.08V790z" /></svg>