<?xml version="1.0" standalone="no"?><!DOCTYPE svg PUBLIC "-//W3C//DTD SVG 1.1//EN" "http://www.w3.org/Graphics/SVG/1.1/DTD/svg11.dtd"><svg t="1664369583119" class="icon" viewBox="0 0 1024 1024" version="1.1" xmlns="http://www.w3.org/2000/svg" p-id="6716" xmlns:xlink="http://www.w3.org/1999/xlink" width="200" height="200"><path d="M637.639 484.781h-96.771v-97.186c0-15.32-12.405-27.732-27.665-27.732-15.285 0-27.666 12.367-27.666 27.732v97.16h-96.796c-15.282 0-27.686 12.465-27.686 27.761 0 15.322 12.355 27.761 27.686 27.761h96.796v97.158c0 15.272 12.381 27.784 27.666 27.784 15.26 0 27.665-12.412 27.665-27.784v-97.086h96.771c15.208 0 27.689-12.415 27.689-27.785-0.023-15.344-12.383-27.783-27.689-27.783M512.933 165.715c-190.612 0-345.784 155.489-345.784 346.655 0 191.162 155.172 346.651 345.784 346.651 190.689 0 345.813-155.463 345.813-346.651 0-191.166-155.101-346.655-345.813-346.655m0 649.958c-166.846 0-302.542-136.063-302.542-303.279 0-167.313 135.696-303.328 302.542-303.328 166.848 0 302.571 136.015 302.571 303.328 0.023 167.192-135.723 303.279-302.571 303.279m0 0z" fill="" p-id="6717"></path></svg>