<?xml version="1.0" standalone="no"?><!DOCTYPE svg PUBLIC "-//W3C//DTD SVG 1.1//EN" "http://www.w3.org/Graphics/SVG/1.1/DTD/svg11.dtd"><svg class="icon" width="200px" height="200.00px" viewBox="0 0 1024 1024" version="1.1" xmlns="http://www.w3.org/2000/svg"><path fill="#333333" d="M620.469219 428.819192H295.874405c-19.869466 0-36.126301-16.256835-36.126301-36.126301s16.256835-36.126301 36.126301-36.126301h324.594814c19.869466 0 36.126301 16.256835 36.1263 36.126301s-16.256835 36.126301-36.1263 36.126301zM512.090316 583.078497H295.874405c-19.869466 0-36.126301-16.256835-36.126301-36.126301s16.256835-36.126301 36.126301-36.126301h216.215911c19.869466 0 36.126301 16.256835 36.126301 36.126301s-16.256835 36.126301-36.126301 36.126301z"  /><path fill="#333333" d="M827.834186 93.928382h-97.721644V36.126301c0-19.869466-16.256835-36.126301-36.126301-36.126301s-36.126301 16.256835-36.126301 36.126301v57.802081H366.14006V36.126301c0-19.869466-16.256835-36.126301-36.126301-36.126301s-36.126301 16.256835-36.126301 36.126301v57.802081h-97.721644c-49.493032 0-89.773858 40.280826-89.773858 89.773858v750.523902c0 49.493032 40.280826 89.773858 89.773858 89.773858h631.668372c49.493032 0 89.773858-40.280826 89.773858-89.773858V183.70224c0-49.493032-40.280826-89.773858-89.773858-89.773858z m17.521256 826.931029c0 17.159993-13.908626 30.887987-30.887987 30.887987H209.532545c-17.159993 0-30.887987-13.908626-30.887987-30.887987V197.068972c0-17.159993 13.908626-30.887987 30.887987-30.887988h84.354913v69.904393c0 19.869466 16.256835 36.126301 36.126301 36.126301s36.126301-16.256835 36.126301-36.126301V166.180984h291.539249v69.904393c0 19.869466 16.256835 36.126301 36.1263 36.126301s36.126301-16.256835 36.126301-36.126301V166.180984h84.354913c17.159993 0 30.887987 13.908626 30.887987 30.887988v723.790439z"  /></svg>