<?xml version="1.0" standalone="no"?><!DOCTYPE svg PUBLIC "-//W3C//DTD SVG 1.1//EN" "http://www.w3.org/Graphics/SVG/1.1/DTD/svg11.dtd"><svg class="icon" width="200px" height="200.00px" viewBox="0 0 1024 1024" version="1.1" xmlns="http://www.w3.org/2000/svg"><path fill="#333333" d="M951.29 671.24c-2.99-15.94-15.68-28.83-28.31-28.83h-2.97c-28.23 0-49.7-22.37-49.7-50.66 0-6.46 2.91-15.94 2.91-18.87 6.29-15.88 0-34.81-12.71-44.71l-56.07-31.79h-15.65c-9.2 0-21.91 2.96-28.26 12.89-6.34 6.49-24.91 22.37-37.54 22.37-12.71 0-31.28-15.88-40.56-22.37-6.29-6.43-15.6-12.89-28.28-12.89-6.29 0-9.23 0-12.69 2.96l-59.48 31.79c-12.71 9.45-18.59 28.8-12.71 44.68 0 0 2.91 9.48 2.91 18.9 0.43 27.56-21.17 50.25-48.24 50.69-0.49 0.01-0.98 0.01-1.47 0h-2.99c-12.69 0-24.88 12.95-28.28 28.8 0 2.99-6.32 25.33-6.32 47.73 0 18.9 2.91 44.71 6.32 47.59 2.97 15.96 15.57 28.88 28.28 28.88h2.99c28.28 0 49.7 22.37 49.7 50.69 0 6.4-2.91 15.85-2.91 18.79-6.29 15.97 0 34.73 12.71 44.71l56.05 31.87c6.4-2.99 9.34-2.99 15.63-2.99 9.28 0 21.97-2.96 28.37-12.97 6.29-6.43 24.85-25.22 40.48-25.22 12.69 0 34.08 15.85 40.48 25.22 6.32 6.49 15.63 12.97 28.31 12.97 6.29 0 9.25 0 15.57-2.96l56.07-31.82c12.69-9.42 18.59-28.77 12.69-44.76 0 0-2.88-9.37-2.88-18.82 0-28.83 21.97-50.69 49.79-50.69h2.91c12.66 0 24.88-12.95 28.26-28.8 0 0 6.32-25.3 6.32-47.73-5.84-15.88-8.73-41.21-8.73-44.65z m-31.98 83.3c-50.15 6.89-87.28 47.77-87.28 102.07 0 10.12 3.15 23.96 6.8 30.91l-43.39 23.93-16.68-17.01c-19.91-13.87-36.59-20.19-56.98-20.19-16.8 0-36.59 6.86-56.98 20.19-6.8 6.86-13.59 10.12-16.77 17.01l-40.18-23.93c3.12-6.95 6.77-20.25 6.77-30.91 0.16-51.5-37.16-95.15-87.28-102.07 0-6.95-3.18-20.25-3.18-34.11 0-10.12 3.18-23.96 3.18-34.05 50.1-6.95 87.28-47.92 87.28-102.16 0-10.15-3.12-23.93-6.77-30.82l43.39-23.99c3.12 3.2 9.85 10.12 16.71 13.87 19.8 13.81 36.59 20.19 53.33 20.19 16.68 0 33.42-6.89 53.24-20.19 6.85-6.89 13.59-10.12 16.8-13.87l43.36 23.99c-3.12 6.89-6.85 20.22-6.85 30.82-0.15 51.54 37.21 95.23 87.37 102.16 0 6.89 3.12 20.22 3.12 34.05 4.73 10.09 0.99 23.92 0.99 34.11zM463.29 79.54c-121.12 0-219.31 99.98-219.31 223.3s98.19 223.3 219.31 223.3 219.31-99.98 219.31-223.3-98.19-223.3-219.31-223.3z m0 407.6c-99.97 0-181.01-82.51-181.01-184.3s81.04-184.3 181.01-184.3 181.01 82.51 181.01 184.3c0 101.78-81.04 184.3-181.01 184.3z"  /><path fill="#333333" d="M83.62 894.19c10.43 0 19.11-8.28 19.64-18.89 9.34-187.69 157.15-338.17 341.48-347.68 10.42-0.54 18.55-9.38 18.55-20 0-11.38-9.33-20.53-20.49-19.96C238.31 498.17 74.35 665.12 64.03 873.33c-0.57 11.36 8.42 20.86 19.59 20.86z"  /><path fill="#333333" d="M444.18 894.19H84.36c-10.55 0-19.11-8.56-19.11-19.11 0-10.55 8.56-19.11 19.11-19.11h359.82c10.55 0 19.11 8.56 19.11 19.11 0 10.55-8.55 19.11-19.11 19.11zM806.85 706.03c-5.85-37.75-34.16-66.57-68.79-73-59.53-12.95-112.7 41.21-100.04 104.79 6.37 34.75 34.19 63.55 68.76 69.98 59.59 13 112.76-41.16 100.07-101.77z m-92.94 62.64c-18.83-3.55-33.99-19.45-37.46-38.64-6.9-35.11 22.07-65.01 54.5-57.87 18.86 3.55 34.29 19.47 37.47 40.31 6.92 33.48-22.05 63.38-54.51 56.2z"  /></svg>